<mxfile host="Electron" modified="2023-10-13T21:38:21.350Z" agent="Mozilla/5.0 (Windows NT 10.0; Win64; x64) AppleWebKit/537.36 (KHTML, like Gecko) draw.io/21.7.5 Chrome/114.0.5735.289 Electron/25.8.1 Safari/537.36" etag="sKT-uQ2DIRf3jMWOoBcX" version="21.7.5" type="device">
  <diagram name="Page-1" id="ByE_iyZ5ZZ_60SZ4c1Ou">
    <mxGraphModel dx="3771" dy="2176" grid="1" gridSize="10" guides="1" tooltips="1" connect="1" arrows="1" fold="1" page="1" pageScale="1" pageWidth="850" pageHeight="1100" math="0" shadow="0">
      <root>
        <mxCell id="0" />
        <mxCell id="1" parent="0" />
        <mxCell id="1qywiVAkQizdQ99wvGyV-4" value="&amp;nbsp;" style="rounded=0;whiteSpace=wrap;html=1;movable=0;resizable=0;rotatable=0;deletable=0;editable=0;locked=1;connectable=0;" parent="1" vertex="1">
          <mxGeometry x="50" y="90" width="1800" height="2670" as="geometry" />
        </mxCell>
        <mxCell id="1qywiVAkQizdQ99wvGyV-8" style="edgeStyle=orthogonalEdgeStyle;rounded=0;orthogonalLoop=1;jettySize=auto;html=1;" parent="1" source="1qywiVAkQizdQ99wvGyV-6" target="1qywiVAkQizdQ99wvGyV-7" edge="1">
          <mxGeometry relative="1" as="geometry" />
        </mxCell>
        <mxCell id="1qywiVAkQizdQ99wvGyV-6" value="" style="ellipse;whiteSpace=wrap;html=1;aspect=fixed;fillColor=#0A0A0A;" parent="1" vertex="1">
          <mxGeometry x="210" y="180" width="30" height="30" as="geometry" />
        </mxCell>
        <mxCell id="GbMurCpLou0Ax2756Db5-12" style="edgeStyle=orthogonalEdgeStyle;rounded=0;orthogonalLoop=1;jettySize=auto;html=1;entryX=0.5;entryY=0;entryDx=0;entryDy=0;" parent="1" source="1qywiVAkQizdQ99wvGyV-7" target="GbMurCpLou0Ax2756Db5-11" edge="1">
          <mxGeometry relative="1" as="geometry" />
        </mxCell>
        <mxCell id="1qywiVAkQizdQ99wvGyV-7" value="Select a custom display case &amp;gt;130 inches" style="ellipse;whiteSpace=wrap;html=1;" parent="1" vertex="1">
          <mxGeometry x="150" y="240" width="150" height="70" as="geometry" />
        </mxCell>
        <mxCell id="1qywiVAkQizdQ99wvGyV-1" value="Customer" style="rounded=0;whiteSpace=wrap;html=1;" parent="1" vertex="1">
          <mxGeometry x="50" y="80" width="360" height="80" as="geometry" />
        </mxCell>
        <mxCell id="1qywiVAkQizdQ99wvGyV-2" value="Grandpa&#39;s Cabinet&#39;s Processing" style="rounded=0;whiteSpace=wrap;html=1;container=0;" parent="1" vertex="1">
          <mxGeometry x="410" y="80" width="360" height="80" as="geometry" />
        </mxCell>
        <mxCell id="GbMurCpLou0Ax2756Db5-4" value="UPS Web System/Integration/API" style="rounded=0;whiteSpace=wrap;html=1;container=0;" parent="1" vertex="1">
          <mxGeometry x="770" y="80" width="360" height="80" as="geometry" />
        </mxCell>
        <mxCell id="GbMurCpLou0Ax2756Db5-5" value="Cybersource Integration" style="rounded=0;whiteSpace=wrap;html=1;container=0;" parent="1" vertex="1">
          <mxGeometry x="1130" y="80" width="360" height="80" as="geometry" />
        </mxCell>
        <mxCell id="GbMurCpLou0Ax2756Db5-6" value="Salesforce Sales Cloud" style="rounded=0;whiteSpace=wrap;html=1;container=0;" parent="1" vertex="1">
          <mxGeometry x="1490" y="80" width="360" height="80" as="geometry" />
        </mxCell>
        <mxCell id="GbMurCpLou0Ax2756Db5-7" value="" style="endArrow=none;html=1;rounded=0;entryX=0;entryY=1;entryDx=0;entryDy=0;exitX=0.203;exitY=1;exitDx=0;exitDy=0;exitPerimeter=0;" parent="1" source="1qywiVAkQizdQ99wvGyV-4" target="1qywiVAkQizdQ99wvGyV-2" edge="1">
          <mxGeometry width="50" height="50" relative="1" as="geometry">
            <mxPoint x="415" y="2162" as="sourcePoint" />
            <mxPoint x="410" y="230" as="targetPoint" />
          </mxGeometry>
        </mxCell>
        <mxCell id="GbMurCpLou0Ax2756Db5-8" value="" style="endArrow=none;html=1;rounded=0;entryX=1;entryY=1;entryDx=0;entryDy=0;exitX=0.404;exitY=1;exitDx=0;exitDy=0;exitPerimeter=0;" parent="1" source="1qywiVAkQizdQ99wvGyV-4" target="1qywiVAkQizdQ99wvGyV-2" edge="1">
          <mxGeometry width="50" height="50" relative="1" as="geometry">
            <mxPoint x="730" y="310" as="sourcePoint" />
            <mxPoint x="780" y="260" as="targetPoint" />
          </mxGeometry>
        </mxCell>
        <mxCell id="GbMurCpLou0Ax2756Db5-9" value="" style="endArrow=none;html=1;rounded=0;entryX=0;entryY=1;entryDx=0;entryDy=0;exitX=0.6;exitY=1;exitDx=0;exitDy=0;exitPerimeter=0;" parent="1" source="1qywiVAkQizdQ99wvGyV-4" target="GbMurCpLou0Ax2756Db5-5" edge="1">
          <mxGeometry width="50" height="50" relative="1" as="geometry">
            <mxPoint x="1060" y="310" as="sourcePoint" />
            <mxPoint x="1110" y="260" as="targetPoint" />
          </mxGeometry>
        </mxCell>
        <mxCell id="GbMurCpLou0Ax2756Db5-10" value="" style="endArrow=none;html=1;rounded=0;entryX=0;entryY=1;entryDx=0;entryDy=0;exitX=0.803;exitY=1;exitDx=0;exitDy=0;exitPerimeter=0;" parent="1" source="1qywiVAkQizdQ99wvGyV-4" target="GbMurCpLou0Ax2756Db5-6" edge="1">
          <mxGeometry width="50" height="50" relative="1" as="geometry">
            <mxPoint x="1420" y="300" as="sourcePoint" />
            <mxPoint x="1470" y="250" as="targetPoint" />
          </mxGeometry>
        </mxCell>
        <mxCell id="GbMurCpLou0Ax2756Db5-16" style="edgeStyle=orthogonalEdgeStyle;rounded=0;orthogonalLoop=1;jettySize=auto;html=1;entryX=1;entryY=0.5;entryDx=0;entryDy=0;" parent="1" source="GbMurCpLou0Ax2756Db5-11" target="GbMurCpLou0Ax2756Db5-13" edge="1">
          <mxGeometry relative="1" as="geometry">
            <Array as="points">
              <mxPoint x="480" y="335" />
              <mxPoint x="480" y="405" />
            </Array>
          </mxGeometry>
        </mxCell>
        <mxCell id="GbMurCpLou0Ax2756Db5-18" style="edgeStyle=orthogonalEdgeStyle;rounded=0;orthogonalLoop=1;jettySize=auto;html=1;entryX=1;entryY=0.5;entryDx=0;entryDy=0;" parent="1" source="GbMurCpLou0Ax2756Db5-11" target="GbMurCpLou0Ax2756Db5-15" edge="1">
          <mxGeometry relative="1" as="geometry">
            <Array as="points">
              <mxPoint x="575" y="525" />
            </Array>
          </mxGeometry>
        </mxCell>
        <mxCell id="GbMurCpLou0Ax2756Db5-11" value="Suggest choosing a custom display kit" style="ellipse;whiteSpace=wrap;html=1;" parent="1" vertex="1">
          <mxGeometry x="500" y="300" width="150" height="70" as="geometry" />
        </mxCell>
        <mxCell id="GbMurCpLou0Ax2756Db5-21" style="edgeStyle=orthogonalEdgeStyle;rounded=0;orthogonalLoop=1;jettySize=auto;html=1;" parent="1" source="GbMurCpLou0Ax2756Db5-13" edge="1">
          <mxGeometry relative="1" as="geometry">
            <mxPoint x="150" y="630" as="targetPoint" />
            <Array as="points">
              <mxPoint x="120" y="405" />
              <mxPoint x="120" y="590" />
              <mxPoint x="150" y="590" />
            </Array>
          </mxGeometry>
        </mxCell>
        <mxCell id="GbMurCpLou0Ax2756Db5-13" value="Change size to &amp;lt;130 inches" style="ellipse;whiteSpace=wrap;html=1;" parent="1" vertex="1">
          <mxGeometry x="150" y="370" width="150" height="70" as="geometry" />
        </mxCell>
        <mxCell id="GbMurCpLou0Ax2756Db5-22" style="edgeStyle=orthogonalEdgeStyle;rounded=0;orthogonalLoop=1;jettySize=auto;html=1;" parent="1" source="GbMurCpLou0Ax2756Db5-15" edge="1">
          <mxGeometry relative="1" as="geometry">
            <mxPoint x="300" y="630" as="targetPoint" />
          </mxGeometry>
        </mxCell>
        <mxCell id="GbMurCpLou0Ax2756Db5-15" value="Choose a custom display kit" style="ellipse;whiteSpace=wrap;html=1;" parent="1" vertex="1">
          <mxGeometry x="150" y="490" width="150" height="70" as="geometry" />
        </mxCell>
        <mxCell id="GbMurCpLou0Ax2756Db5-17" value="Go against suggestion and change order" style="text;html=1;strokeColor=none;fillColor=none;align=center;verticalAlign=middle;whiteSpace=wrap;rounded=0;" parent="1" vertex="1">
          <mxGeometry x="310" y="360" width="100" height="30" as="geometry" />
        </mxCell>
        <mxCell id="GbMurCpLou0Ax2756Db5-19" value="Go with suggestion and change to custom display kit" style="text;html=1;strokeColor=none;fillColor=none;align=center;verticalAlign=middle;whiteSpace=wrap;rounded=0;" parent="1" vertex="1">
          <mxGeometry x="300" y="470" width="100" height="30" as="geometry" />
        </mxCell>
        <mxCell id="GbMurCpLou0Ax2756Db5-20" value="" style="endArrow=none;html=1;rounded=0;" parent="1" edge="1">
          <mxGeometry width="50" height="50" relative="1" as="geometry">
            <mxPoint x="130" y="630" as="sourcePoint" />
            <mxPoint x="310" y="630" as="targetPoint" />
          </mxGeometry>
        </mxCell>
        <mxCell id="GbMurCpLou0Ax2756Db5-26" style="edgeStyle=orthogonalEdgeStyle;rounded=0;orthogonalLoop=1;jettySize=auto;html=1;" parent="1" source="GbMurCpLou0Ax2756Db5-23" target="GbMurCpLou0Ax2756Db5-25" edge="1">
          <mxGeometry relative="1" as="geometry" />
        </mxCell>
        <mxCell id="GbMurCpLou0Ax2756Db5-23" value="Select checkout" style="ellipse;whiteSpace=wrap;html=1;" parent="1" vertex="1">
          <mxGeometry x="145" y="679" width="150" height="70" as="geometry" />
        </mxCell>
        <mxCell id="GbMurCpLou0Ax2756Db5-24" value="" style="endArrow=classic;html=1;rounded=0;entryX=0.5;entryY=0;entryDx=0;entryDy=0;" parent="1" target="GbMurCpLou0Ax2756Db5-23" edge="1">
          <mxGeometry width="50" height="50" relative="1" as="geometry">
            <mxPoint x="220" y="630" as="sourcePoint" />
            <mxPoint x="300" y="660" as="targetPoint" />
          </mxGeometry>
        </mxCell>
        <mxCell id="GbMurCpLou0Ax2756Db5-28" style="edgeStyle=orthogonalEdgeStyle;rounded=0;orthogonalLoop=1;jettySize=auto;html=1;entryX=0;entryY=0.5;entryDx=0;entryDy=0;" parent="1" source="GbMurCpLou0Ax2756Db5-25" target="GbMurCpLou0Ax2756Db5-27" edge="1">
          <mxGeometry relative="1" as="geometry" />
        </mxCell>
        <mxCell id="GbMurCpLou0Ax2756Db5-25" value="Relay package weight, dimensions and shipping address" style="ellipse;whiteSpace=wrap;html=1;" parent="1" vertex="1">
          <mxGeometry x="500" y="679" width="150" height="70" as="geometry" />
        </mxCell>
        <mxCell id="GbMurCpLou0Ax2756Db5-30" style="edgeStyle=orthogonalEdgeStyle;rounded=0;orthogonalLoop=1;jettySize=auto;html=1;entryX=1;entryY=0.5;entryDx=0;entryDy=0;" parent="1" source="GbMurCpLou0Ax2756Db5-27" target="GbMurCpLou0Ax2756Db5-29" edge="1">
          <mxGeometry relative="1" as="geometry">
            <Array as="points">
              <mxPoint x="950" y="855" />
            </Array>
          </mxGeometry>
        </mxCell>
        <mxCell id="GbMurCpLou0Ax2756Db5-27" value="Calculate price and different shipping options" style="ellipse;whiteSpace=wrap;html=1;" parent="1" vertex="1">
          <mxGeometry x="875" y="679" width="150" height="70" as="geometry" />
        </mxCell>
        <mxCell id="GbMurCpLou0Ax2756Db5-33" style="edgeStyle=orthogonalEdgeStyle;rounded=0;orthogonalLoop=1;jettySize=auto;html=1;entryX=1;entryY=0.5;entryDx=0;entryDy=0;exitX=0.5;exitY=1;exitDx=0;exitDy=0;" parent="1" source="GbMurCpLou0Ax2756Db5-29" target="GbMurCpLou0Ax2756Db5-32" edge="1">
          <mxGeometry relative="1" as="geometry">
            <Array as="points">
              <mxPoint x="575" y="1125" />
            </Array>
          </mxGeometry>
        </mxCell>
        <mxCell id="GbMurCpLou0Ax2756Db5-41" style="edgeStyle=orthogonalEdgeStyle;rounded=0;orthogonalLoop=1;jettySize=auto;html=1;entryX=1;entryY=0.5;entryDx=0;entryDy=0;" parent="1" source="GbMurCpLou0Ax2756Db5-29" target="GbMurCpLou0Ax2756Db5-40" edge="1">
          <mxGeometry relative="1" as="geometry" />
        </mxCell>
        <mxCell id="GbMurCpLou0Ax2756Db5-29" value="Send price to customer" style="ellipse;whiteSpace=wrap;html=1;" parent="1" vertex="1">
          <mxGeometry x="500" y="820" width="150" height="70" as="geometry" />
        </mxCell>
        <mxCell id="GbMurCpLou0Ax2756Db5-31" value="Send calculated price" style="text;html=1;strokeColor=none;fillColor=none;align=center;verticalAlign=middle;whiteSpace=wrap;rounded=0;" parent="1" vertex="1">
          <mxGeometry x="790" y="810" width="130" height="30" as="geometry" />
        </mxCell>
        <mxCell id="GbMurCpLou0Ax2756Db5-50" style="edgeStyle=orthogonalEdgeStyle;rounded=0;orthogonalLoop=1;jettySize=auto;html=1;" parent="1" source="GbMurCpLou0Ax2756Db5-32" target="GbMurCpLou0Ax2756Db5-49" edge="1">
          <mxGeometry relative="1" as="geometry" />
        </mxCell>
        <mxCell id="GbMurCpLou0Ax2756Db5-32" value="Choose preffered shipping option with calculated price" style="ellipse;whiteSpace=wrap;html=1;" parent="1" vertex="1">
          <mxGeometry x="130" y="1090" width="150" height="70" as="geometry" />
        </mxCell>
        <mxCell id="GbMurCpLou0Ax2756Db5-34" value="Agree with price" style="text;html=1;strokeColor=none;fillColor=none;align=center;verticalAlign=middle;whiteSpace=wrap;rounded=0;" parent="1" vertex="1">
          <mxGeometry x="280" y="1090" width="130" height="30" as="geometry" />
        </mxCell>
        <mxCell id="GbMurCpLou0Ax2756Db5-38" value="End" style="ellipse;whiteSpace=wrap;html=1;aspect=fixed;" parent="1" vertex="1">
          <mxGeometry x="257.5" y="940" width="42.5" height="42.5" as="geometry" />
        </mxCell>
        <mxCell id="GbMurCpLou0Ax2756Db5-45" style="edgeStyle=orthogonalEdgeStyle;rounded=0;orthogonalLoop=1;jettySize=auto;html=1;entryX=0.5;entryY=0;entryDx=0;entryDy=0;" parent="1" source="GbMurCpLou0Ax2756Db5-40" target="GbMurCpLou0Ax2756Db5-43" edge="1">
          <mxGeometry relative="1" as="geometry">
            <Array as="points">
              <mxPoint x="170" y="910" />
              <mxPoint x="155" y="910" />
            </Array>
          </mxGeometry>
        </mxCell>
        <mxCell id="GbMurCpLou0Ax2756Db5-47" style="edgeStyle=orthogonalEdgeStyle;rounded=0;orthogonalLoop=1;jettySize=auto;html=1;" parent="1" source="GbMurCpLou0Ax2756Db5-40" target="GbMurCpLou0Ax2756Db5-38" edge="1">
          <mxGeometry relative="1" as="geometry">
            <Array as="points">
              <mxPoint x="260" y="915" />
              <mxPoint x="279" y="915" />
            </Array>
          </mxGeometry>
        </mxCell>
        <mxCell id="GbMurCpLou0Ax2756Db5-40" value="Think" style="ellipse;whiteSpace=wrap;html=1;" parent="1" vertex="1">
          <mxGeometry x="145" y="820" width="150" height="70" as="geometry" />
        </mxCell>
        <mxCell id="GbMurCpLou0Ax2756Db5-42" value="Disagree with price" style="text;html=1;strokeColor=none;fillColor=none;align=center;verticalAlign=middle;whiteSpace=wrap;rounded=0;" parent="1" vertex="1">
          <mxGeometry x="295" y="820" width="130" height="30" as="geometry" />
        </mxCell>
        <mxCell id="GbMurCpLou0Ax2756Db5-44" style="edgeStyle=orthogonalEdgeStyle;rounded=0;orthogonalLoop=1;jettySize=auto;html=1;entryX=0;entryY=0.5;entryDx=0;entryDy=0;exitX=0.5;exitY=1;exitDx=0;exitDy=0;" parent="1" source="GbMurCpLou0Ax2756Db5-43" target="GbMurCpLou0Ax2756Db5-23" edge="1">
          <mxGeometry relative="1" as="geometry">
            <Array as="points">
              <mxPoint x="155" y="1020" />
              <mxPoint x="60" y="1020" />
              <mxPoint x="60" y="714" />
            </Array>
          </mxGeometry>
        </mxCell>
        <mxCell id="GbMurCpLou0Ax2756Db5-43" value="Choose other display case type" style="ellipse;whiteSpace=wrap;html=1;" parent="1" vertex="1">
          <mxGeometry x="80" y="940" width="150" height="70" as="geometry" />
        </mxCell>
        <mxCell id="GbMurCpLou0Ax2756Db5-46" value="Still want to shop" style="text;html=1;strokeColor=none;fillColor=none;align=center;verticalAlign=middle;whiteSpace=wrap;rounded=0;" parent="1" vertex="1">
          <mxGeometry x="90" y="890" width="70" height="30" as="geometry" />
        </mxCell>
        <mxCell id="GbMurCpLou0Ax2756Db5-48" value="Does not want to continue" style="text;html=1;strokeColor=none;fillColor=none;align=center;verticalAlign=middle;whiteSpace=wrap;rounded=0;" parent="1" vertex="1">
          <mxGeometry x="280" y="890" width="70" height="30" as="geometry" />
        </mxCell>
        <mxCell id="GbMurCpLou0Ax2756Db5-52" style="edgeStyle=orthogonalEdgeStyle;rounded=0;orthogonalLoop=1;jettySize=auto;html=1;" parent="1" source="GbMurCpLou0Ax2756Db5-49" target="GbMurCpLou0Ax2756Db5-51" edge="1">
          <mxGeometry relative="1" as="geometry" />
        </mxCell>
        <mxCell id="GbMurCpLou0Ax2756Db5-49" value="Go to payment" style="ellipse;whiteSpace=wrap;html=1;" parent="1" vertex="1">
          <mxGeometry x="130" y="1200" width="150" height="70" as="geometry" />
        </mxCell>
        <mxCell id="GbMurCpLou0Ax2756Db5-54" style="edgeStyle=orthogonalEdgeStyle;rounded=0;orthogonalLoop=1;jettySize=auto;html=1;entryX=0;entryY=0.5;entryDx=0;entryDy=0;" parent="1" source="GbMurCpLou0Ax2756Db5-51" target="GbMurCpLou0Ax2756Db5-53" edge="1">
          <mxGeometry relative="1" as="geometry" />
        </mxCell>
        <mxCell id="GbMurCpLou0Ax2756Db5-51" value="Open Cybersource integration/new window" style="ellipse;whiteSpace=wrap;html=1;" parent="1" vertex="1">
          <mxGeometry x="500" y="1200" width="150" height="70" as="geometry" />
        </mxCell>
        <mxCell id="tS7YX8San558WmxK2Q43-2" style="edgeStyle=orthogonalEdgeStyle;rounded=0;orthogonalLoop=1;jettySize=auto;html=1;" edge="1" parent="1" source="GbMurCpLou0Ax2756Db5-53" target="tS7YX8San558WmxK2Q43-1">
          <mxGeometry relative="1" as="geometry" />
        </mxCell>
        <mxCell id="GbMurCpLou0Ax2756Db5-53" value="Open Cybersource integration/new window" style="ellipse;whiteSpace=wrap;html=1;" parent="1" vertex="1">
          <mxGeometry x="1235" y="1200" width="150" height="70" as="geometry" />
        </mxCell>
        <mxCell id="tS7YX8San558WmxK2Q43-4" style="edgeStyle=orthogonalEdgeStyle;rounded=0;orthogonalLoop=1;jettySize=auto;html=1;entryX=1;entryY=0.5;entryDx=0;entryDy=0;" edge="1" parent="1" source="tS7YX8San558WmxK2Q43-1" target="tS7YX8San558WmxK2Q43-3">
          <mxGeometry relative="1" as="geometry" />
        </mxCell>
        <mxCell id="tS7YX8San558WmxK2Q43-1" value="Show payment options, pricing, and details" style="ellipse;whiteSpace=wrap;html=1;" vertex="1" parent="1">
          <mxGeometry x="1235" y="1330" width="150" height="70" as="geometry" />
        </mxCell>
        <mxCell id="tS7YX8San558WmxK2Q43-6" style="edgeStyle=orthogonalEdgeStyle;rounded=0;orthogonalLoop=1;jettySize=auto;html=1;entryX=0.52;entryY=-0.033;entryDx=0;entryDy=0;entryPerimeter=0;" edge="1" parent="1" source="tS7YX8San558WmxK2Q43-3" target="tS7YX8San558WmxK2Q43-5">
          <mxGeometry relative="1" as="geometry">
            <Array as="points">
              <mxPoint x="210" y="1485" />
              <mxPoint x="1313" y="1485" />
            </Array>
          </mxGeometry>
        </mxCell>
        <mxCell id="tS7YX8San558WmxK2Q43-3" value="Select payment options, confirm pricing, enter card information or pay another way (PayPal)" style="ellipse;whiteSpace=wrap;html=1;" vertex="1" parent="1">
          <mxGeometry x="130" y="1330" width="150" height="70" as="geometry" />
        </mxCell>
        <mxCell id="tS7YX8San558WmxK2Q43-8" style="edgeStyle=orthogonalEdgeStyle;rounded=0;orthogonalLoop=1;jettySize=auto;html=1;" edge="1" parent="1" source="tS7YX8San558WmxK2Q43-5" target="tS7YX8San558WmxK2Q43-7">
          <mxGeometry relative="1" as="geometry" />
        </mxCell>
        <mxCell id="tS7YX8San558WmxK2Q43-17" style="edgeStyle=orthogonalEdgeStyle;rounded=0;orthogonalLoop=1;jettySize=auto;html=1;" edge="1" parent="1" source="tS7YX8San558WmxK2Q43-5" target="tS7YX8San558WmxK2Q43-16">
          <mxGeometry relative="1" as="geometry" />
        </mxCell>
        <mxCell id="tS7YX8San558WmxK2Q43-5" value="Try to process payment" style="ellipse;whiteSpace=wrap;html=1;" vertex="1" parent="1">
          <mxGeometry x="1235" y="1520" width="150" height="70" as="geometry" />
        </mxCell>
        <mxCell id="tS7YX8San558WmxK2Q43-11" style="edgeStyle=orthogonalEdgeStyle;rounded=0;orthogonalLoop=1;jettySize=auto;html=1;" edge="1" parent="1" source="tS7YX8San558WmxK2Q43-7" target="tS7YX8San558WmxK2Q43-10">
          <mxGeometry relative="1" as="geometry" />
        </mxCell>
        <mxCell id="tS7YX8San558WmxK2Q43-13" style="edgeStyle=orthogonalEdgeStyle;rounded=0;orthogonalLoop=1;jettySize=auto;html=1;entryX=0;entryY=0.5;entryDx=0;entryDy=0;" edge="1" parent="1" source="tS7YX8San558WmxK2Q43-7" target="tS7YX8San558WmxK2Q43-3">
          <mxGeometry relative="1" as="geometry">
            <Array as="points">
              <mxPoint x="100" y="1635" />
              <mxPoint x="100" y="1365" />
            </Array>
          </mxGeometry>
        </mxCell>
        <mxCell id="tS7YX8San558WmxK2Q43-7" value="Think" style="ellipse;whiteSpace=wrap;html=1;" vertex="1" parent="1">
          <mxGeometry x="130" y="1600" width="150" height="70" as="geometry" />
        </mxCell>
        <mxCell id="tS7YX8San558WmxK2Q43-9" value="Failure to process" style="text;html=1;strokeColor=none;fillColor=none;align=center;verticalAlign=middle;whiteSpace=wrap;rounded=0;" vertex="1" parent="1">
          <mxGeometry x="1120" y="1520" width="130" height="30" as="geometry" />
        </mxCell>
        <mxCell id="tS7YX8San558WmxK2Q43-10" value="End" style="ellipse;whiteSpace=wrap;html=1;aspect=fixed;" vertex="1" parent="1">
          <mxGeometry x="300" y="1680" width="42.5" height="42.5" as="geometry" />
        </mxCell>
        <mxCell id="tS7YX8San558WmxK2Q43-12" value="Do not try again" style="text;html=1;strokeColor=none;fillColor=none;align=center;verticalAlign=middle;whiteSpace=wrap;rounded=0;" vertex="1" parent="1">
          <mxGeometry x="270" y="1600" width="130" height="30" as="geometry" />
        </mxCell>
        <mxCell id="tS7YX8San558WmxK2Q43-14" value="Try again" style="text;html=1;strokeColor=none;fillColor=none;align=center;verticalAlign=middle;whiteSpace=wrap;rounded=0;" vertex="1" parent="1">
          <mxGeometry x="30" y="1650" width="130" height="30" as="geometry" />
        </mxCell>
        <mxCell id="tS7YX8San558WmxK2Q43-23" style="edgeStyle=orthogonalEdgeStyle;rounded=0;orthogonalLoop=1;jettySize=auto;html=1;" edge="1" parent="1" source="tS7YX8San558WmxK2Q43-16" target="tS7YX8San558WmxK2Q43-22">
          <mxGeometry relative="1" as="geometry" />
        </mxCell>
        <mxCell id="tS7YX8San558WmxK2Q43-16" value="Send confirmation to cart and send email confirmation" style="ellipse;whiteSpace=wrap;html=1;" vertex="1" parent="1">
          <mxGeometry x="1235" y="1690" width="150" height="70" as="geometry" />
        </mxCell>
        <mxCell id="tS7YX8San558WmxK2Q43-18" value="Successfully processed" style="text;html=1;strokeColor=none;fillColor=none;align=center;verticalAlign=middle;whiteSpace=wrap;rounded=0;" vertex="1" parent="1">
          <mxGeometry x="1310" y="1600" width="130" height="30" as="geometry" />
        </mxCell>
        <mxCell id="tS7YX8San558WmxK2Q43-21" value="Send confirmation and money" style="text;html=1;strokeColor=none;fillColor=none;align=center;verticalAlign=middle;whiteSpace=wrap;rounded=0;" vertex="1" parent="1">
          <mxGeometry x="885" y="1692.5" width="130" height="30" as="geometry" />
        </mxCell>
        <mxCell id="tS7YX8San558WmxK2Q43-25" style="edgeStyle=orthogonalEdgeStyle;rounded=0;orthogonalLoop=1;jettySize=auto;html=1;entryX=0;entryY=0.5;entryDx=0;entryDy=0;" edge="1" parent="1" source="tS7YX8San558WmxK2Q43-22" target="tS7YX8San558WmxK2Q43-24">
          <mxGeometry relative="1" as="geometry">
            <Array as="points">
              <mxPoint x="575" y="1845" />
            </Array>
          </mxGeometry>
        </mxCell>
        <mxCell id="tS7YX8San558WmxK2Q43-47" style="edgeStyle=orthogonalEdgeStyle;rounded=0;orthogonalLoop=1;jettySize=auto;html=1;" edge="1" parent="1" source="tS7YX8San558WmxK2Q43-22">
          <mxGeometry relative="1" as="geometry">
            <mxPoint x="530" y="2390" as="targetPoint" />
            <Array as="points">
              <mxPoint x="460" y="1725" />
              <mxPoint x="460" y="2320" />
              <mxPoint x="530" y="2320" />
            </Array>
          </mxGeometry>
        </mxCell>
        <mxCell id="tS7YX8San558WmxK2Q43-22" value="Confirm payment and send information to customer" style="ellipse;whiteSpace=wrap;html=1;" vertex="1" parent="1">
          <mxGeometry x="500" y="1690" width="150" height="70" as="geometry" />
        </mxCell>
        <mxCell id="tS7YX8San558WmxK2Q43-28" style="edgeStyle=orthogonalEdgeStyle;rounded=0;orthogonalLoop=1;jettySize=auto;html=1;entryX=0.5;entryY=0;entryDx=0;entryDy=0;" edge="1" parent="1" source="tS7YX8San558WmxK2Q43-24" target="tS7YX8San558WmxK2Q43-27">
          <mxGeometry relative="1" as="geometry">
            <Array as="points">
              <mxPoint x="950" y="1900" />
              <mxPoint x="575" y="1900" />
            </Array>
          </mxGeometry>
        </mxCell>
        <mxCell id="tS7YX8San558WmxK2Q43-24" value="Create shipping label and send it" style="ellipse;whiteSpace=wrap;html=1;" vertex="1" parent="1">
          <mxGeometry x="875" y="1810" width="150" height="70" as="geometry" />
        </mxCell>
        <mxCell id="tS7YX8San558WmxK2Q43-26" value="Send money" style="text;html=1;strokeColor=none;fillColor=none;align=center;verticalAlign=middle;whiteSpace=wrap;rounded=0;" vertex="1" parent="1">
          <mxGeometry x="580" y="1810" width="130" height="30" as="geometry" />
        </mxCell>
        <mxCell id="tS7YX8San558WmxK2Q43-30" style="edgeStyle=orthogonalEdgeStyle;rounded=0;orthogonalLoop=1;jettySize=auto;html=1;entryX=0.5;entryY=0;entryDx=0;entryDy=0;" edge="1" parent="1" source="tS7YX8San558WmxK2Q43-27" target="tS7YX8San558WmxK2Q43-29">
          <mxGeometry relative="1" as="geometry" />
        </mxCell>
        <mxCell id="tS7YX8San558WmxK2Q43-27" value="Send information to Salesforce" style="ellipse;whiteSpace=wrap;html=1;" vertex="1" parent="1">
          <mxGeometry x="500" y="1950" width="150" height="70" as="geometry" />
        </mxCell>
        <mxCell id="tS7YX8San558WmxK2Q43-32" style="edgeStyle=orthogonalEdgeStyle;rounded=0;orthogonalLoop=1;jettySize=auto;html=1;exitX=0;exitY=0.5;exitDx=0;exitDy=0;" edge="1" parent="1" source="tS7YX8San558WmxK2Q43-29" target="tS7YX8San558WmxK2Q43-31">
          <mxGeometry relative="1" as="geometry" />
        </mxCell>
        <mxCell id="tS7YX8San558WmxK2Q43-35" style="edgeStyle=orthogonalEdgeStyle;rounded=0;orthogonalLoop=1;jettySize=auto;html=1;entryX=0.5;entryY=0;entryDx=0;entryDy=0;" edge="1" parent="1" source="tS7YX8San558WmxK2Q43-29" target="tS7YX8San558WmxK2Q43-34">
          <mxGeometry relative="1" as="geometry">
            <Array as="points">
              <mxPoint x="1765" y="2045" />
            </Array>
          </mxGeometry>
        </mxCell>
        <mxCell id="tS7YX8San558WmxK2Q43-29" value="Check for existing profile" style="ellipse;whiteSpace=wrap;html=1;" vertex="1" parent="1">
          <mxGeometry x="1595" y="2010" width="150" height="70" as="geometry" />
        </mxCell>
        <mxCell id="tS7YX8San558WmxK2Q43-39" style="edgeStyle=orthogonalEdgeStyle;rounded=0;orthogonalLoop=1;jettySize=auto;html=1;" edge="1" parent="1" source="tS7YX8San558WmxK2Q43-31">
          <mxGeometry relative="1" as="geometry">
            <mxPoint x="1620" y="2270" as="targetPoint" />
          </mxGeometry>
        </mxCell>
        <mxCell id="tS7YX8San558WmxK2Q43-31" value="Update information" style="ellipse;whiteSpace=wrap;html=1;" vertex="1" parent="1">
          <mxGeometry x="1500" y="2130" width="150" height="70" as="geometry" />
        </mxCell>
        <mxCell id="tS7YX8San558WmxK2Q43-33" value="Existing profile" style="text;html=1;strokeColor=none;fillColor=none;align=center;verticalAlign=middle;whiteSpace=wrap;rounded=0;" vertex="1" parent="1">
          <mxGeometry x="1460" y="2070" width="130" height="30" as="geometry" />
        </mxCell>
        <mxCell id="tS7YX8San558WmxK2Q43-40" style="edgeStyle=orthogonalEdgeStyle;rounded=0;orthogonalLoop=1;jettySize=auto;html=1;" edge="1" parent="1" source="tS7YX8San558WmxK2Q43-34">
          <mxGeometry relative="1" as="geometry">
            <mxPoint x="1730" y="2270" as="targetPoint" />
          </mxGeometry>
        </mxCell>
        <mxCell id="tS7YX8San558WmxK2Q43-34" value="Create profile" style="ellipse;whiteSpace=wrap;html=1;" vertex="1" parent="1">
          <mxGeometry x="1690" y="2130" width="150" height="70" as="geometry" />
        </mxCell>
        <mxCell id="tS7YX8San558WmxK2Q43-37" value="" style="endArrow=none;html=1;rounded=0;" edge="1" parent="1">
          <mxGeometry width="50" height="50" relative="1" as="geometry">
            <mxPoint x="1595" y="2270" as="sourcePoint" />
            <mxPoint x="1765" y="2270" as="targetPoint" />
          </mxGeometry>
        </mxCell>
        <mxCell id="tS7YX8San558WmxK2Q43-49" style="edgeStyle=orthogonalEdgeStyle;rounded=0;orthogonalLoop=1;jettySize=auto;html=1;" edge="1" parent="1" source="tS7YX8San558WmxK2Q43-41">
          <mxGeometry relative="1" as="geometry">
            <mxPoint x="630" y="2390" as="targetPoint" />
            <Array as="points">
              <mxPoint x="630" y="2355" />
            </Array>
          </mxGeometry>
        </mxCell>
        <mxCell id="tS7YX8San558WmxK2Q43-41" value="Create analysis, analytics, etc." style="ellipse;whiteSpace=wrap;html=1;" vertex="1" parent="1">
          <mxGeometry x="1595" y="2320" width="150" height="70" as="geometry" />
        </mxCell>
        <mxCell id="tS7YX8San558WmxK2Q43-42" value="" style="endArrow=classic;html=1;rounded=0;" edge="1" parent="1" target="tS7YX8San558WmxK2Q43-41">
          <mxGeometry width="50" height="50" relative="1" as="geometry">
            <mxPoint x="1670" y="2270" as="sourcePoint" />
            <mxPoint x="1780" y="2270" as="targetPoint" />
          </mxGeometry>
        </mxCell>
        <mxCell id="tS7YX8San558WmxK2Q43-52" style="edgeStyle=orthogonalEdgeStyle;rounded=0;orthogonalLoop=1;jettySize=auto;html=1;" edge="1" parent="1" source="tS7YX8San558WmxK2Q43-43" target="tS7YX8San558WmxK2Q43-51">
          <mxGeometry relative="1" as="geometry" />
        </mxCell>
        <mxCell id="tS7YX8San558WmxK2Q43-43" value="Build product and package it" style="ellipse;whiteSpace=wrap;html=1;" vertex="1" parent="1">
          <mxGeometry x="505" y="2440" width="150" height="70" as="geometry" />
        </mxCell>
        <mxCell id="tS7YX8San558WmxK2Q43-45" value="No profile" style="text;html=1;strokeColor=none;fillColor=none;align=center;verticalAlign=middle;whiteSpace=wrap;rounded=0;" vertex="1" parent="1">
          <mxGeometry x="1720" y="2010" width="130" height="30" as="geometry" />
        </mxCell>
        <mxCell id="tS7YX8San558WmxK2Q43-46" value="Send analysis" style="text;html=1;strokeColor=none;fillColor=none;align=center;verticalAlign=middle;whiteSpace=wrap;rounded=0;" vertex="1" parent="1">
          <mxGeometry x="1310" y="2320" width="130" height="30" as="geometry" />
        </mxCell>
        <mxCell id="tS7YX8San558WmxK2Q43-48" value="" style="endArrow=none;html=1;rounded=0;" edge="1" parent="1">
          <mxGeometry width="50" height="50" relative="1" as="geometry">
            <mxPoint x="490" y="2390" as="sourcePoint" />
            <mxPoint x="660" y="2390" as="targetPoint" />
          </mxGeometry>
        </mxCell>
        <mxCell id="tS7YX8San558WmxK2Q43-50" value="" style="endArrow=classic;html=1;rounded=0;entryX=0.5;entryY=0;entryDx=0;entryDy=0;" edge="1" parent="1" target="tS7YX8San558WmxK2Q43-43">
          <mxGeometry width="50" height="50" relative="1" as="geometry">
            <mxPoint x="580" y="2390" as="sourcePoint" />
            <mxPoint x="760" y="2410" as="targetPoint" />
          </mxGeometry>
        </mxCell>
        <mxCell id="tS7YX8San558WmxK2Q43-54" style="edgeStyle=orthogonalEdgeStyle;rounded=0;orthogonalLoop=1;jettySize=auto;html=1;" edge="1" parent="1" source="tS7YX8San558WmxK2Q43-51" target="tS7YX8San558WmxK2Q43-53">
          <mxGeometry relative="1" as="geometry" />
        </mxCell>
        <mxCell id="tS7YX8San558WmxK2Q43-51" value="Ship product" style="ellipse;whiteSpace=wrap;html=1;" vertex="1" parent="1">
          <mxGeometry x="875" y="2440" width="150" height="70" as="geometry" />
        </mxCell>
        <mxCell id="tS7YX8San558WmxK2Q43-56" style="edgeStyle=orthogonalEdgeStyle;rounded=0;orthogonalLoop=1;jettySize=auto;html=1;" edge="1" parent="1" source="tS7YX8San558WmxK2Q43-53" target="tS7YX8San558WmxK2Q43-55">
          <mxGeometry relative="1" as="geometry" />
        </mxCell>
        <mxCell id="tS7YX8San558WmxK2Q43-53" value="Send shipping confirmation package delivered" style="ellipse;whiteSpace=wrap;html=1;" vertex="1" parent="1">
          <mxGeometry x="875" y="2580" width="150" height="70" as="geometry" />
        </mxCell>
        <mxCell id="tS7YX8San558WmxK2Q43-59" style="edgeStyle=orthogonalEdgeStyle;rounded=0;orthogonalLoop=1;jettySize=auto;html=1;entryX=1;entryY=0.5;entryDx=0;entryDy=0;" edge="1" parent="1" source="tS7YX8San558WmxK2Q43-55" target="tS7YX8San558WmxK2Q43-58">
          <mxGeometry relative="1" as="geometry" />
        </mxCell>
        <mxCell id="tS7YX8San558WmxK2Q43-55" value="Send package delivery confirmation" style="ellipse;whiteSpace=wrap;html=1;" vertex="1" parent="1">
          <mxGeometry x="505" y="2580" width="150" height="70" as="geometry" />
        </mxCell>
        <mxCell id="tS7YX8San558WmxK2Q43-58" value="End" style="ellipse;whiteSpace=wrap;html=1;aspect=fixed;" vertex="1" parent="1">
          <mxGeometry x="160" y="2593.75" width="42.5" height="42.5" as="geometry" />
        </mxCell>
        <mxCell id="tS7YX8San558WmxK2Q43-60" value="Receive package" style="text;html=1;strokeColor=none;fillColor=none;align=center;verticalAlign=middle;whiteSpace=wrap;rounded=0;" vertex="1" parent="1">
          <mxGeometry x="240" y="2580" width="130" height="30" as="geometry" />
        </mxCell>
      </root>
    </mxGraphModel>
  </diagram>
</mxfile>
